<?xml version="1.0" encoding="utf-8"?>
<!-- Generator: Adobe Illustrator 23.0.4, SVG Export Plug-In . SVG Version: 6.00 Build 0)  -->
<svg version="1.1" id="圖層_1" xmlns="http://www.w3.org/2000/svg" xmlns:xlink="http://www.w3.org/1999/xlink" x="0px" y="0px"
	 viewBox="0 0 780 247" style="enable-background:new 0 0 780 247;" xml:space="preserve">
<style type="text/css">
	.st0{fill:#4892BB;stroke:#5E87A3;stroke-miterlimit:10;}
	.st1{fill:#225D96;stroke:#1C4A72;stroke-miterlimit:10;}
	.st2{fill:#FFFFFF;}
	.st3{fill:#DBDBDB;}
	.st4{fill:#224E96;}
</style>
<g>
	<polyline class="st0" points="132,247.5 33,200.5 0,51.5 132,0.5 	"/>
	<polyline class="st1" points="132,247.5 231,200.5 264,51.5 132,0.5 	"/>
	<path class="st2" d="M132,27.5l-28,14c0,0-24,76-26,81s-33-62-33-62l-25,9l21,111l25,8l-11-51l30,45l20-50l4,80l23,11V27.5z"/>
	<polygon class="st3" points="132,222.5 160,211.5 160,163.5 192,197.5 226,182.5 168,124.5 240,62.5 198,48.5 161,87.5 162,37.5 
		132,27.5 	"/>
	<g>
		<path class="st4" d="M313.17,119.78l18.76-22.33h6.96v45.17h-5.08v-39.4l-20.64,24.53l-20.64-24.53v39.4h-5.08V97.45h6.96
			L313.17,119.78z"/>
		<path class="st4" d="M353.07,97.45h30.11c2.09,0,3.87,0.73,5.33,2.2c1.46,1.46,2.2,3.24,2.2,5.33v30.11c0,2.09-0.73,3.87-2.2,5.33
			c-1.46,1.46-3.24,2.2-5.33,2.2h-30.11c-2.09,0-3.87-0.73-5.33-2.2c-1.46-1.46-2.2-3.24-2.2-5.33v-30.11c0-2.09,0.73-3.87,2.2-5.33
			C349.2,98.18,350.98,97.45,353.07,97.45z M353.07,137.54h30.11c0.67,0,1.24-0.24,1.73-0.72c0.48-0.48,0.72-1.06,0.72-1.72v-30.11
			c0-0.67-0.24-1.24-0.72-1.73c-0.48-0.48-1.06-0.72-1.73-0.72h-30.11c-0.67,0-1.25,0.24-1.73,0.72c-0.48,0.48-0.72,1.06-0.72,1.73
			v30.11c0,0.67,0.24,1.25,0.72,1.72C351.83,137.3,352.4,137.54,353.07,137.54z"/>
		<path class="st4" d="M437.7,136.85v-39.4h5.08v45.17h-6.96l-33.13-39.4v39.4h-5.08V97.45h6.96L437.7,136.85z"/>
		<path class="st4" d="M494.67,104.98v1.76h-5.08v-1.76c0-0.67-0.24-1.24-0.72-1.73c-0.48-0.48-1.06-0.72-1.73-0.72h-30.11
			c-0.67,0-1.25,0.24-1.73,0.72c-0.48,0.48-0.72,1.06-0.72,1.73v10.1c0,0.67,0.24,1.23,0.72,1.69c0.48,0.46,1.06,0.69,1.73,0.69
			h30.11c2.09,0,3.87,0.73,5.33,2.2c1.46,1.46,2.2,3.24,2.2,5.33v10.1c0,2.09-0.73,3.87-2.2,5.33c-1.46,1.46-3.24,2.2-5.33,2.2
			h-30.11c-2.09,0-3.87-0.73-5.33-2.2c-1.46-1.46-2.2-3.24-2.2-5.33v-1.76h5.08v1.76c0,0.67,0.24,1.25,0.72,1.72
			c0.48,0.48,1.06,0.72,1.73,0.72h30.11c0.67,0,1.24-0.24,1.73-0.72c0.48-0.48,0.72-1.06,0.72-1.72v-10.1
			c0-0.67-0.24-1.23-0.72-1.69c-0.48-0.46-1.06-0.69-1.73-0.69h-30.11c-2.09,0-3.87-0.73-5.33-2.2c-1.46-1.46-2.2-3.24-2.2-5.33
			v-10.1c0-2.09,0.73-3.87,2.2-5.33c1.46-1.46,3.24-2.2,5.33-2.2h30.11c2.09,0,3.87,0.73,5.33,2.2
			C493.94,101.11,494.67,102.89,494.67,104.98z"/>
		<path class="st4" d="M499.12,97.45h45.17v5.08h-20.01v40.09h-5.08v-40.09h-20.08V97.45z"/>
		<path class="st4" d="M590.34,97.45v5.08H554.2v14.93h29.05v5.14H554.2v14.93h36.14v5.08h-41.22V97.45H590.34z"/>
		<path class="st4" d="M642.16,105.04v13.24c0,2.09-0.73,3.87-2.2,5.33c-1.46,1.46-3.24,2.2-5.33,2.2h-6.9l14.18,16.81h-6.71
			l-14.12-16.81h-16.56c-0.38,0-1.19-0.08-2.45-0.25v17.06h-5.08V97.51h37.64c2.09,0,3.87,0.73,5.33,2.2
			C641.43,101.17,642.16,102.95,642.16,105.04z M604.52,120.66h30.11c0.67,0,1.23-0.23,1.69-0.69c0.46-0.46,0.69-1.02,0.69-1.69
			v-13.24c0-0.67-0.23-1.24-0.69-1.72c-0.46-0.48-1.03-0.72-1.69-0.72h-30.11c-0.67,0-1.25,0.24-1.73,0.72
			c-0.48,0.48-0.72,1.06-0.72,1.72v13.24c0,0.67,0.24,1.23,0.72,1.69C603.27,120.43,603.85,120.66,604.52,120.66z"/>
		<path class="st4" d="M702.45,97.45h6.52l-18.88,22.58l18.95,22.59h-6.59l-16.81-20.01h-14.55v20.01h-5.14V97.45h5.14v20.01h14.55
			L702.45,97.45z"/>
		<path class="st4" d="M715.94,142.62V97.45h5.08v45.17H715.94z"/>
		<path class="st4" d="M774.54,104.98v1.76h-5.08v-1.76c0-0.67-0.24-1.24-0.72-1.73c-0.48-0.48-1.06-0.72-1.73-0.72h-30.11
			c-0.67,0-1.25,0.24-1.73,0.72c-0.48,0.48-0.72,1.06-0.72,1.73v10.1c0,0.67,0.24,1.23,0.72,1.69c0.48,0.46,1.06,0.69,1.73,0.69
			h30.11c2.09,0,3.87,0.73,5.33,2.2c1.46,1.46,2.2,3.24,2.2,5.33v10.1c0,2.09-0.73,3.87-2.2,5.33c-1.46,1.46-3.24,2.2-5.33,2.2
			h-30.11c-2.09,0-3.87-0.73-5.33-2.2c-1.46-1.46-2.2-3.24-2.2-5.33v-1.76h5.08v1.76c0,0.67,0.24,1.25,0.72,1.72
			c0.48,0.48,1.06,0.72,1.73,0.72h30.11c0.67,0,1.24-0.24,1.73-0.72c0.48-0.48,0.72-1.06,0.72-1.72v-10.1
			c0-0.67-0.24-1.23-0.72-1.69c-0.48-0.46-1.06-0.69-1.73-0.69h-30.11c-2.09,0-3.87-0.73-5.33-2.2c-1.46-1.46-2.2-3.24-2.2-5.33
			v-10.1c0-2.09,0.73-3.87,2.2-5.33c1.46-1.46,3.24-2.2,5.33-2.2h30.11c2.09,0,3.87,0.73,5.33,2.2
			C773.8,101.11,774.54,102.89,774.54,104.98z"/>
	</g>
	<g>
		<path class="st4" d="M451.97,175.58h-24.75c-0.44,0-0.82,0.16-1.14,0.48c-0.32,0.32-0.48,0.7-0.48,1.14v19.86
			c0,0.44,0.16,0.82,0.48,1.14c0.32,0.32,0.7,0.48,1.14,0.48h24.75v3.35h-24.75c-1.38,0-2.55-0.48-3.52-1.45
			c-0.97-0.97-1.45-2.14-1.45-3.52V177.2c0-1.38,0.48-2.55,1.45-3.52c0.97-0.97,2.14-1.45,3.52-1.45h24.75V175.58z"/>
		<path class="st4" d="M456.32,202.03v-29.79h3.35v29.79H456.32z"/>
		<path class="st4" d="M491.82,198.22v-25.99h3.35v29.79h-4.59l-21.85-25.99v25.99h-3.35v-29.79h4.59L491.82,198.22z"/>
		<path class="st4" d="M527.08,172.23v3.35h-23.83v9.85h19.16v3.39h-19.16v9.85h23.83v3.35h-27.19v-29.79H527.08z"/>
		<path class="st4" d="M547.27,186.96l12.37-14.73h4.59v29.79h-3.35v-25.99l-13.61,16.18l-13.61-16.18v25.99h-3.35v-29.79h4.59
			L547.27,186.96z"/>
		<path class="st4" d="M573.76,172.23h19.86c1.38,0,2.55,0.48,3.52,1.45c0.96,0.97,1.45,2.14,1.45,3.52v24.83h-3.35v-10.88h-23.09
			v10.88h-3.35V177.2c0-1.38,0.48-2.55,1.45-3.52C571.21,172.72,572.38,172.23,573.76,172.23z M572.14,187.79h23.09V177.2
			c0-0.44-0.16-0.82-0.48-1.14c-0.32-0.32-0.7-0.48-1.14-0.48h-19.86c-0.44,0-0.82,0.16-1.14,0.48c-0.32,0.32-0.48,0.7-0.48,1.14
			V187.79z"/>
		<path class="st4" d="M632.89,177.2v1.16h-3.35v-1.16c0-0.44-0.16-0.82-0.48-1.14c-0.32-0.32-0.7-0.48-1.14-0.48h-19.86
			c-0.44,0-0.82,0.16-1.14,0.48c-0.32,0.32-0.48,0.7-0.48,1.14v6.66c0,0.44,0.16,0.81,0.48,1.12c0.32,0.3,0.7,0.46,1.14,0.46h19.86
			c1.38,0,2.55,0.48,3.52,1.45c0.97,0.97,1.45,2.14,1.45,3.52v6.66c0,1.38-0.48,2.55-1.45,3.52c-0.97,0.97-2.14,1.45-3.52,1.45
			h-19.86c-1.38,0-2.55-0.48-3.52-1.45c-0.97-0.97-1.45-2.14-1.45-3.52v-1.16h3.35v1.16c0,0.44,0.16,0.82,0.48,1.14
			c0.32,0.32,0.7,0.48,1.14,0.48h19.86c0.44,0,0.82-0.16,1.14-0.48c0.32-0.32,0.48-0.7,0.48-1.14v-6.66c0-0.44-0.16-0.81-0.48-1.12
			c-0.32-0.3-0.7-0.46-1.14-0.46h-19.86c-1.38,0-2.55-0.48-3.52-1.45c-0.97-0.97-1.45-2.14-1.45-3.52v-6.66
			c0-1.38,0.48-2.55,1.45-3.52c0.97-0.97,2.14-1.45,3.52-1.45h19.86c1.38,0,2.55,0.48,3.52,1.45
			C632.41,174.65,632.89,175.82,632.89,177.2z"/>
	</g>
</g>
</svg>
